<?xml version="1.0" encoding="utf-8"?>
<!-- Generator: Adobe Illustrator 23.0.5, SVG Export Plug-In . SVG Version: 6.00 Build 0)  -->
<svg version="1.1" id="Layer_1" xmlns="http://www.w3.org/2000/svg" xmlns:xlink="http://www.w3.org/1999/xlink" x="0px" y="0px"
	 viewBox="0 0 164 36" style="enable-background:new 0 0 164 36;" xml:space="preserve">
<style type="text/css">
	.st0{fill-rule:evenodd;clip-rule:evenodd;fill:url(#SVGID_1_);}
	.st1{fill:url(#SVGID_2_);}
	.st2{fill:url(#SVGID_3_);}
	.st3{fill:#FFFFFF;}
</style>
<linearGradient id="SVGID_1_" gradientUnits="userSpaceOnUse" x1="54.5881" y1="34.1642" x2="0.5881" y2="5.2076" gradientTransform="matrix(1 0 0 -1 0 38)">
	<stop  offset="0" style="stop-color:#701EFC"/>
	<stop  offset="1" style="stop-color:#CBB3F3"/>
</linearGradient>
<path class="st0" d="M38.3,4.7H18c-7.3,0-13.3,6-13.3,13.3s6,13.3,13.3,13.3h20.3c7.3,0,13.3-6,13.3-13.3S45.7,4.7,38.3,4.7z M18,0
	C8.1,0,0,8.1,0,18c0,9.9,8.1,18,18,18h20.3c9.9,0,18-8.1,18-18c0-9.9-8.1-18-18-18H18z"/>
<linearGradient id="SVGID_2_" gradientUnits="userSpaceOnUse" x1="25.0936" y1="21.0945" x2="17.6107" y2="19.028" gradientTransform="matrix(1 0 0 -1 0 38)">
	<stop  offset="0" style="stop-color:#ECE0FF"/>
	<stop  offset="1" style="stop-color:#7C3AED"/>
</linearGradient>
<path class="st1" d="M24.3,18c0,1.7-1.4,3.1-3.1,3.1c-1.7,0-3.1-1.4-3.1-3.1c0-1.7,1.4-3.1,3.1-3.1C22.9,14.9,24.3,16.3,24.3,18z"/>
<linearGradient id="SVGID_3_" gradientUnits="userSpaceOnUse" x1="37.1324" y1="17.2908" x2="33.1421" y2="22.9445" gradientTransform="matrix(1 0 0 -1 0 38)">
	<stop  offset="0" style="stop-color:#7C3AED"/>
	<stop  offset="1" style="stop-color:#ECE0FF"/>
</linearGradient>
<path class="st2" d="M38.4,18c0,1.7-1.4,3.1-3.1,3.1c-1.7,0-3.1-1.4-3.1-3.1c0-1.7,1.4-3.1,3.1-3.1C36.9,14.9,38.4,16.3,38.4,18z"/>
<path class="st3" d="M75.6,29.6h-4.2l8.4-23.2h4.2l8.4,23.2H88l-1.9-5.4h-8.7L75.6,29.6z M81.3,13.3l-2.6,7.5h6.3l-2.7-7.5
	c-0.2-0.6-0.4-1.3-0.5-1.8C81.7,12,81.5,12.7,81.3,13.3z"/>
<path class="st3" d="M98.2,6.4v23.2h-4.1V6.4H98.2z"/>
<path class="st3" d="M107.7,10.2V6.4h17.7v3.7h-6.8v19.5h-4.1V10.2H107.7z"/>
<path class="st3" d="M123.3,21.7c0-4.9,3.5-8.3,8.4-8.3c4.9,0,8.4,3.4,8.4,8.3s-3.5,8.3-8.4,8.3C126.8,30,123.3,26.6,123.3,21.7z
	 M127.2,21.7c0,2.9,1.8,4.8,4.5,4.8c2.7,0,4.5-1.9,4.5-4.8c0-2.9-1.8-4.8-4.5-4.8C129,17,127.2,18.9,127.2,21.7z"/>
<path class="st3" d="M141.1,21.7c0-4.9,3.5-8.3,8.4-8.3c4.9,0,8.4,3.4,8.4,8.3s-3.5,8.3-8.4,8.3C144.7,30,141.1,26.6,141.1,21.7z
	 M145,21.7c0,2.9,1.8,4.8,4.5,4.8c2.7,0,4.5-1.9,4.5-4.8c0-2.9-1.8-4.8-4.5-4.8C146.8,17,145,18.9,145,21.7z"/>
<path class="st3" d="M163.8,29.6H160V6h3.8V29.6z"/>
</svg>
